<svg xmlns="http://www.w3.org/2000/svg" xmlns:xlink="http://www.w3.org/1999/xlink" viewBox="0 0 154.93 53.02"><defs><style>.cls-1,.cls-2{fill:#fff;}.cls-2{font-size:18.08px;font-family:Roboto-Bold, Roboto;font-weight:700;}.cls-3{letter-spacing:-0.08em;}.cls-4{letter-spacing:-0.02em;}.cls-5{letter-spacing:-0.02em;}.cls-6{letter-spacing:-0.03em;}.cls-7{letter-spacing:-0.02em;}.cls-8{clip-path:url(#clip-path);}</style><clipPath id="clip-path"><path class="cls-1" d="M69.86,0h0A9.89,9.89,0,0,0,61,5.46L47.7,31.18A13.25,13.25,0,0,0,41,25.34,12.72,12.72,0,0,0,39.37,3.73a25.89,25.89,0,0,0-12.06-3H7.4A7.39,7.39,0,0,0,0,8.16V45.21a7.4,7.4,0,0,0,7.4,7.4H28.93a29.58,29.58,0,0,0,11.69-2.4L42,49.55a1.51,1.51,0,0,0,.22-.11,7.4,7.4,0,0,0,13.08-.76,3.91,3.91,0,0,1,3.43-2.38H81a3.94,3.94,0,0,1,3.44,2.38,7.4,7.4,0,0,0,14.13-3,7.19,7.19,0,0,0-1-3.64L78.72,5.46A9.91,9.91,0,0,0,69.86,0Z"/></clipPath></defs><title>ba_vamosba_blanco</title><g id="Layer_2" data-name="Layer 2"><g id="Capa_1" data-name="Capa 1"><text class="cls-2" transform="translate(83.26 16.58)"><tspan class="cls-3">V</tspan><tspan class="cls-4" x="10.4" y="0">amos</tspan><tspan x="53.9" y="0"> </tspan></text><text class="cls-2" transform="translate(83.26 31.68)"><tspan class="cls-5" xml:space="preserve">  </tspan><tspan class="cls-6" x="8.32" y="0">B</tspan><tspan class="cls-4" x="19.34" y="0">uenos</tspan><tspan x="67.17" y="0"> </tspan></text><text class="cls-2" transform="translate(83.26 46.78)"><tspan class="cls-5" xml:space="preserve">  </tspan><tspan class="cls-7" x="8.32" y="0"> </tspan><tspan class="cls-5" x="12.46" y="0" xml:space="preserve"> Aire</tspan><tspan x="48.58" y="0">s</tspan></text><path class="cls-1" d="M69.86,0h0A9.89,9.89,0,0,0,61,5.46L47.7,31.18A13.25,13.25,0,0,0,41,25.34,12.72,12.72,0,0,0,39.37,3.73a25.89,25.89,0,0,0-12.06-3H7.4A7.39,7.39,0,0,0,0,8.16V45.21a7.4,7.4,0,0,0,7.4,7.4H28.93a29.58,29.58,0,0,0,11.69-2.4L42,49.55a1.51,1.51,0,0,0,.22-.11,7.4,7.4,0,0,0,13.08-.76,3.91,3.91,0,0,1,3.43-2.38H81a3.94,3.94,0,0,1,3.44,2.38,7.4,7.4,0,0,0,14.13-3,7.19,7.19,0,0,0-1-3.64L78.72,5.46A9.91,9.91,0,0,0,69.86,0Z"/><g class="cls-8"><rect class="cls-1" width="98.58" height="53.02"/></g></g></g></svg>