<svg xmlns="http://www.w3.org/2000/svg" viewBox="0 0 285.06 45.07"><defs><style>.cls-1{fill:#fafafa;}</style></defs><title>Asset 1</title><g id="Layer_2" data-name="Layer 2"><g id="Capa_1" data-name="Capa 1"><path class="cls-1" d="M65,27.78a3.86,3.86,0,0,1-1.06,1.4,5,5,0,0,1-1.67.9,7.22,7.22,0,0,1-2.2.31H51.85V15.25h7.76a5.67,5.67,0,0,1,3.8,1.09,3.75,3.75,0,0,1,1.27,3,3.35,3.35,0,0,1-.44,1.71A3.73,3.73,0,0,1,63,22.32a4,4,0,0,1,1.69,1.4,3.89,3.89,0,0,1,.61,2.22A4.48,4.48,0,0,1,65,27.78Zm-9.92-9.91v3.34h4.56A2.17,2.17,0,0,0,61,20.75a1.63,1.63,0,0,0,0-2.43,2.14,2.14,0,0,0-1.44-.45Zm6.36,6.49a3,3,0,0,0-1.88-.51H55.05v3.9h4.56a4.58,4.58,0,0,0,.9-.09,2.06,2.06,0,0,0,.78-.31,1.75,1.75,0,0,0,.56-.59,1.83,1.83,0,0,0,.21-.93A1.77,1.77,0,0,0,61.41,24.36Z"/><path class="cls-1" d="M77.89,30.39h-3v-1a4.13,4.13,0,0,1-1.38.94,4.55,4.55,0,0,1-1.8.34,5.42,5.42,0,0,1-2-.36,4.3,4.3,0,0,1-2.55-2.55,5.42,5.42,0,0,1-.35-2V19.15h3.2v6.57a3.07,3.07,0,0,0,.07.61,2,2,0,0,0,.32.73,1.83,1.83,0,0,0,.7.61,2.57,2.57,0,0,0,1.24.26A2.44,2.44,0,0,0,74,27.29a2.08,2.08,0,0,0,.66-1.57V19.15h3.2Z"/><path class="cls-1" d="M82.87,25.9A2.89,2.89,0,0,0,84,27.53a3.28,3.28,0,0,0,2,.59,3.72,3.72,0,0,0,1.52-.31,2.49,2.49,0,0,0,1.13-1h3.42a5.27,5.27,0,0,1-2.12,2.79,6.9,6.9,0,0,1-3.92,1,6.82,6.82,0,0,1-2.48-.45,6.68,6.68,0,0,1-2-1.26,6,6,0,0,1-1.39-1.86,5.44,5.44,0,0,1,0-4.6,6,6,0,0,1,1.39-1.87,6.52,6.52,0,0,1,2-1.27A6.63,6.63,0,0,1,86,18.87a7.32,7.32,0,0,1,2.61.47A5.6,5.6,0,0,1,92,22.93a7.12,7.12,0,0,1,.27,3Zm6.25-2.36A2.82,2.82,0,0,0,88,22a3.44,3.44,0,0,0-2-.58,3.29,3.29,0,0,0-1.91.58,3.15,3.15,0,0,0-1.17,1.56Z"/><path class="cls-1" d="M105.23,30.39H102V23.82a3.49,3.49,0,0,0-.08-.62,2.22,2.22,0,0,0-.3-.74,1.81,1.81,0,0,0-.69-.61,2.63,2.63,0,0,0-1.26-.25,2.45,2.45,0,0,0-1.76.63,2.08,2.08,0,0,0-.67,1.59v6.57h-3.2V19.15h3.06v1.09a4.65,4.65,0,0,1,1.4-1,4.26,4.26,0,0,1,1.82-.37,5.35,5.35,0,0,1,2,.36,4.32,4.32,0,0,1,1.54,1,4.62,4.62,0,0,1,1,1.56,5.77,5.77,0,0,1,.35,2Z"/><path class="cls-1" d="M115.58,19.32a6.3,6.3,0,0,1,2,1.24,5.78,5.78,0,0,1,1.36,1.88,5.55,5.55,0,0,1,.5,2.34,5.49,5.49,0,0,1-.5,2.34A5.66,5.66,0,0,1,117.58,29a6.3,6.3,0,0,1-2,1.24,7,7,0,0,1-4.9,0,6.1,6.1,0,0,1-2-1.24,5.77,5.77,0,0,1-1.35-1.85,5.49,5.49,0,0,1-.5-2.34,5.55,5.55,0,0,1,.5-2.34,5.9,5.9,0,0,1,1.35-1.88,6.1,6.1,0,0,1,2-1.24,6.89,6.89,0,0,1,4.9,0Zm-1.26,8.46A3,3,0,0,0,116,26.12a3.49,3.49,0,0,0,.24-1.32,3.56,3.56,0,0,0-.24-1.32,3,3,0,0,0-2.84-2,3.06,3.06,0,0,0-1.2.24,2.83,2.83,0,0,0-1,.68,3.27,3.27,0,0,0-.65,1.05,3.37,3.37,0,0,0-.25,1.32,3.3,3.3,0,0,0,.25,1.32,3.19,3.19,0,0,0,.65,1,2.76,2.76,0,0,0,1,.65,3.05,3.05,0,0,0,1.2.23A3,3,0,0,0,114.32,27.78Z"/><path class="cls-1" d="M131.27,28.38a3.61,3.61,0,0,1-1.14,1.2,5.63,5.63,0,0,1-1.73.79,8,8,0,0,1-2.19.28,8.58,8.58,0,0,1-2.21-.27,6.13,6.13,0,0,1-1.8-.78,4.84,4.84,0,0,1-1.27-1.24,3.82,3.82,0,0,1-.64-1.63h3.25a1.67,1.67,0,0,0,.47.61,3,3,0,0,0,.67.4,2.9,2.9,0,0,0,.76.23,5.24,5.24,0,0,0,.77.07,4.41,4.41,0,0,0,1.61-.26c.43-.16.64-.41.64-.75a.76.76,0,0,0-.1-.41.77.77,0,0,0-.38-.31,4.51,4.51,0,0,0-.8-.25,13.41,13.41,0,0,0-1.34-.23c-.56-.07-1.15-.17-1.76-.29A7.54,7.54,0,0,1,122.4,25a3.81,3.81,0,0,1-1.28-1,2.33,2.33,0,0,1-.49-1.54,2.89,2.89,0,0,1,.33-1.31,3.13,3.13,0,0,1,1-1.15,5.15,5.15,0,0,1,1.66-.82,8.47,8.47,0,0,1,4.35-.07,6.11,6.11,0,0,1,1.64.71,4.33,4.33,0,0,1,1.18,1.11,3.81,3.81,0,0,1,.6,1.44h-3.32a1.3,1.3,0,0,0-.67-.66,3.12,3.12,0,0,0-1.42-.27,3.22,3.22,0,0,0-1.6.29q-.48.3-.48.6c0,.29.21.5.65.63a13,13,0,0,0,1.82.37c.78.12,1.49.25,2.15.41a6.47,6.47,0,0,1,1.68.61,3,3,0,0,1,1.11,1,2.75,2.75,0,0,1,.4,1.52A2.88,2.88,0,0,1,131.27,28.38Z"/><path class="cls-1" d="M143.64,27.36l-1.14,3h-3.39L145,15.25H149l5.87,15.14h-3.4l-1.14-3Zm3.35-8.9-2.35,6.21h4.7Z"/><path class="cls-1" d="M159.41,17.93h-3.2V15.25h3.2Zm0,12.46h-3.2V19.15h3.2Z"/><path class="cls-1" d="M173.11,24.39h-3.2v-.57a4.48,4.48,0,0,0-.07-.62,2.06,2.06,0,0,0-.31-.74,1.81,1.81,0,0,0-.69-.61,2.61,2.61,0,0,0-1.26-.25,2.46,2.46,0,0,0-1.76.63,2.1,2.1,0,0,0-.66,1.59v6.57H162V19.15H165v1.09a4.58,4.58,0,0,1,1.41-1,4.23,4.23,0,0,1,1.82-.37,5.43,5.43,0,0,1,2,.36,4.27,4.27,0,0,1,2.52,2.56,5.77,5.77,0,0,1,.35,2Z"/><path class="cls-1" d="M177.33,25.9a2.94,2.94,0,0,0,1.15,1.63,3.31,3.31,0,0,0,2,.59,3.68,3.68,0,0,0,1.51-.31,2.44,2.44,0,0,0,1.13-1h3.42a5.27,5.27,0,0,1-2.12,2.79,6.88,6.88,0,0,1-3.92,1A6.81,6.81,0,0,1,178,30.2a6.61,6.61,0,0,1-2-1.26,6,6,0,0,1-1.38-1.86,5.44,5.44,0,0,1,0-4.6A5.94,5.94,0,0,1,176,20.61a6.45,6.45,0,0,1,2-1.27,6.62,6.62,0,0,1,2.47-.47,7.28,7.28,0,0,1,2.61.47,5.67,5.67,0,0,1,2.1,1.37,5.87,5.87,0,0,1,1.31,2.22,7.12,7.12,0,0,1,.27,3Zm6.26-2.36A2.87,2.87,0,0,0,182.46,22a3.47,3.47,0,0,0-2-.58,3.3,3.3,0,0,0-1.92.58,3.14,3.14,0,0,0-1.16,1.56Z"/><path class="cls-1" d="M198.67,28.38a3.61,3.61,0,0,1-1.14,1.2,5.63,5.63,0,0,1-1.73.79,8,8,0,0,1-2.2.28,8.56,8.56,0,0,1-2.2-.27,6.13,6.13,0,0,1-1.8-.78,4.84,4.84,0,0,1-1.27-1.24,3.82,3.82,0,0,1-.64-1.63h3.25a1.67,1.67,0,0,0,.47.61,3,3,0,0,0,.67.4,2.79,2.79,0,0,0,.76.23,5.24,5.24,0,0,0,.76.07,4.43,4.43,0,0,0,1.62-.26c.43-.16.64-.41.64-.75a.71.71,0,0,0-.49-.72,4,4,0,0,0-.8-.25,13.14,13.14,0,0,0-1.33-.23c-.57-.07-1.15-.17-1.76-.29A7.37,7.37,0,0,1,189.8,25a3.71,3.71,0,0,1-1.28-1,2.33,2.33,0,0,1-.49-1.54,3,3,0,0,1,.32-1.31,3.26,3.26,0,0,1,1-1.15,5.15,5.15,0,0,1,1.66-.82,8.47,8.47,0,0,1,4.35-.07,6.25,6.25,0,0,1,1.64.71,4.29,4.29,0,0,1,1.17,1.11,3.67,3.67,0,0,1,.61,1.44h-3.32a1.3,1.3,0,0,0-.67-.66,3.12,3.12,0,0,0-1.42-.27,3.2,3.2,0,0,0-1.6.29q-.48.3-.48.6c0,.29.21.5.65.63a13,13,0,0,0,1.82.37c.78.12,1.49.25,2.15.41a6.47,6.47,0,0,1,1.68.61,3,3,0,0,1,1.11,1,2.75,2.75,0,0,1,.4,1.52A2.88,2.88,0,0,1,198.67,28.38Z"/><path class="cls-1" d="M221.85,27.69a7.34,7.34,0,0,1-1.7,1.59,8,8,0,0,1-2.2,1,9.1,9.1,0,0,1-2.61.36,8.39,8.39,0,0,1-3.22-.61,7.84,7.84,0,0,1-4.3-4.19,7.92,7.92,0,0,1,0-6.19,7.85,7.85,0,0,1,1.72-2.51,7.94,7.94,0,0,1,2.58-1.68,8.4,8.4,0,0,1,3.22-.62,9.76,9.76,0,0,1,2.65.35,8,8,0,0,1,2.21,1,7.13,7.13,0,0,1,1.7,1.59,7.51,7.51,0,0,1,1.1,2.1h-3.47a4.48,4.48,0,0,0-1.65-1.73,4.72,4.72,0,0,0-2.54-.67,4.47,4.47,0,0,0-1.94.41,4.91,4.91,0,0,0-1.57,1.14,5.47,5.47,0,0,0-1.44,3.7,5.57,5.57,0,0,0,1.44,3.74,5,5,0,0,0,1.57,1.13,4.48,4.48,0,0,0,1.94.42,4.67,4.67,0,0,0,4.19-2.45H223A7.84,7.84,0,0,1,221.85,27.69Z"/><path class="cls-1" d="M227.8,17.93h-3.2V15.25h3.2Zm0,12.46h-3.2V19.15h3.2Z"/><path class="cls-1" d="M241.29,30.39h-3.06v-1a4.13,4.13,0,0,1-1.38.94,4.55,4.55,0,0,1-1.8.34,5.42,5.42,0,0,1-2-.36,4.3,4.3,0,0,1-2.55-2.55,5.63,5.63,0,0,1-.35-2V19.15h3.2v6.57a4.07,4.07,0,0,0,.07.61,2,2,0,0,0,.32.73,1.91,1.91,0,0,0,.7.61,2.57,2.57,0,0,0,1.24.26,2.43,2.43,0,0,0,1.76-.64,2.08,2.08,0,0,0,.66-1.57V19.15h3.21Z"/><path class="cls-1" d="M255.84,30.39h-3.06v-1.2a5.25,5.25,0,0,1-1.71,1.07,5.75,5.75,0,0,1-2.12.37,5.9,5.9,0,0,1-5.47-3.53,6,6,0,0,1,0-4.64,6,6,0,0,1,1.28-1.87,6.21,6.21,0,0,1,1.9-1.23,5.88,5.88,0,0,1,2.29-.45,6.09,6.09,0,0,1,2,.34,5.41,5.41,0,0,1,1.66,1V14.16h3.2Zm-3.46-6.85a3.45,3.45,0,0,0-.69-1,3.09,3.09,0,0,0-1-.68,3.18,3.18,0,0,0-2.47,0,3.22,3.22,0,0,0-2,3,3.17,3.17,0,0,0,2,2.93,3.21,3.21,0,0,0,1.23.24,3.05,3.05,0,0,0,1.24-.25,3.43,3.43,0,0,0,1-.68,3.19,3.19,0,0,0,.69-1,3.06,3.06,0,0,0,.26-1.24A3.12,3.12,0,0,0,252.38,23.54Z"/><path class="cls-1" d="M270.46,30.39h-3v-1.2a5.1,5.1,0,0,1-1.7,1.07,6.2,6.2,0,0,1-4.43-.08,5.83,5.83,0,0,1-3.17-3.08,5.85,5.85,0,0,1,0-4.64,5.82,5.82,0,0,1,1.28-1.87,6.05,6.05,0,0,1,1.89-1.23,6.13,6.13,0,0,1,4.43-.07,5.08,5.08,0,0,1,1.7,1.06v-1.2h3ZM267,23.54a3.3,3.3,0,0,0-.7-1,3.16,3.16,0,0,0-1-.68,3.2,3.2,0,0,0-2.48,0,3.34,3.34,0,0,0-1,.67,3.22,3.22,0,0,0-.94,2.3,3,3,0,0,0,.25,1.26,3.08,3.08,0,0,0,.69,1,3.17,3.17,0,0,0,1,.67,3.22,3.22,0,0,0,1.24.24,3.05,3.05,0,0,0,1.24-.25,3.52,3.52,0,0,0,1-.68,3,3,0,0,0,.95-2.24A3.12,3.12,0,0,0,267,23.54Z"/><path class="cls-1" d="M285.06,30.39H282v-1.2a5.36,5.36,0,0,1-1.71,1.07,5.79,5.79,0,0,1-2.12.37,5.93,5.93,0,0,1-2.3-.45,5.83,5.83,0,0,1-3.17-3.08,5.85,5.85,0,0,1,0-4.64A5.82,5.82,0,0,1,274,20.59a6.05,6.05,0,0,1,1.89-1.23,5.93,5.93,0,0,1,2.3-.45,6,6,0,0,1,2,.34,5.29,5.29,0,0,1,1.66,1V14.16h3.2Zm-3.45-6.85a3.45,3.45,0,0,0-.69-1,3.31,3.31,0,0,0-1-.68,3.2,3.2,0,0,0-2.48,0,3.47,3.47,0,0,0-1,.67,3.22,3.22,0,0,0-.94,2.3,3,3,0,0,0,.25,1.26,3.08,3.08,0,0,0,.69,1,3.28,3.28,0,0,0,1,.67,3.22,3.22,0,0,0,1.24.24,3.05,3.05,0,0,0,1.24-.25,3.71,3.71,0,0,0,1-.68,3.19,3.19,0,0,0,.69-1,3.05,3.05,0,0,0,.25-1.24A3.12,3.12,0,0,0,281.61,23.54Z"/><path class="cls-1" d="M20.62,7.28a.23.23,0,0,0-.24.22.22.22,0,0,0,.24.21.22.22,0,0,0,.23-.21.22.22,0,0,0-.23-.22"/><path class="cls-1" d="M32.65,10.59h0A12.39,12.39,0,0,1,29,9.76c-.47-.16-.94-.32-1.42-.46a11.42,11.42,0,0,0-2.56-.45h-.6a2.69,2.69,0,0,0-1.74.45,10.8,10.8,0,0,0-.53-1.68A2.1,2.1,0,0,0,21,6.28a1.15,1.15,0,0,0-.31,0,1.83,1.83,0,0,0-1.33.8l-.1.14c-.28.35-.41.53-.37.69s.27.3.77.56c.22.11.26.4.29.61v0A6,6,0,0,1,20,10a5.49,5.49,0,0,0-2.82-1.1,5.57,5.57,0,0,0-.83-.07,8.63,8.63,0,0,0-3,.68c-.42.16-.84.34-1.24.52a18.29,18.29,0,0,1-2.44.92,7.13,7.13,0,0,1-.86.18H8.74c-.13,0-.34.08-.39.26s0,.29.25.48a5.05,5.05,0,0,0,2.29.46c.19,0,.38,0,.59,0s.55,0,.85-.08a10.84,10.84,0,0,1,1.27-.09,4.54,4.54,0,0,1,.77.06,2.57,2.57,0,0,1,1.44,1.29,4.17,4.17,0,0,0,.26.38h0a1.72,1.72,0,0,1,.42.88c0,.28-.44.5-.74.67l-.22.12-.32.2c-.69.39-1.63.93-1.52,1.65a.86.86,0,0,0,.78.68h.11a1.91,1.91,0,0,0,.79-.23l.31-.14a2.87,2.87,0,0,1,1-.18,2.79,2.79,0,0,1,1.58.5,4,4,0,0,1,.45.37,3.11,3.11,0,0,0,.49.39,1.23,1.23,0,0,0,.63.19c.23,0,.38-.09.42-.27a5.09,5.09,0,0,0,.07-1.1,6.48,6.48,0,0,1,0-.88c0-.17.08-.53.33-.64a.65.65,0,0,1,.29-.05,2.71,2.71,0,0,1,.4,0,1.88,1.88,0,0,0,.52,0,2,2,0,0,0,1.61-1.43.78.78,0,0,1,.6-.45,1.57,1.57,0,0,0,.82-.61l.16-.19a2.25,2.25,0,0,1,1.79-.7l.47,0,.48.05c.42,0,.82.08,1.22.08a4.4,4.4,0,0,0,1.19-.15,8.45,8.45,0,0,0,2.52-1.38l.11-.08c.22-.16.27-.27.21-.45s-.32-.22-.42-.24M16.47,13.11a6.09,6.09,0,0,0-.62-.82,2.89,2.89,0,0,0-2.35-.86c-.45,0-.93.05-1.39.09s-.92.09-1.37.09a6.3,6.3,0,0,1-.65,0,20.33,20.33,0,0,0,2.26-.87,18.15,18.15,0,0,1,2.43-.92,5.86,5.86,0,0,1,1.62-.22,5.34,5.34,0,0,1,2.7.69c.63.38.81.77.6,1.33a5.1,5.1,0,0,1-1.17,1.73l-.12.13c-.24.26-.64.68-1,.68a.34.34,0,0,1-.27-.12,5.31,5.31,0,0,1-.69-.89m6.35.83a2,2,0,0,1-.63,1.19,1.55,1.55,0,0,1-1.06.29h-.46a1,1,0,0,0-.68.24c-.52.48-.51,1.52-.51,2.21v.22L19.43,18a4.28,4.28,0,0,0-2.2-1.19,3.4,3.4,0,0,0-.45,0,3.9,3.9,0,0,0-.88.1,3.67,3.67,0,0,0-.73.24,2.18,2.18,0,0,1-.27.11,1.06,1.06,0,0,1-.35.09.08.08,0,0,1-.06,0s0,0,0,0c.09-.28.43-.49.7-.65l.07,0c.69-.42,1.34-.84,2-1.29a8.79,8.79,0,0,0,3.1-3.22,5.34,5.34,0,0,0,.44-2.59v0a3,3,0,0,0-.22-1.11,1.31,1.31,0,0,0-.65-.56l-.15-.08c.13-.21.47-.75.86-.75a.6.6,0,0,1,.44.25,5.36,5.36,0,0,1,.87,1.87l.1.34a12,12,0,0,1,.79,4.52m8-2.22a3.92,3.92,0,0,1-1.75.48h0A9.5,9.5,0,0,1,28,12.1c-.29,0-.6-.07-.9-.08a3.4,3.4,0,0,0-1.79.33,2.92,2.92,0,0,0-.77.66,3.54,3.54,0,0,1-.52.5.38.38,0,0,1-.21.1h0c-.09,0-.1-.06-.09-.17v-.07a5.92,5.92,0,0,0-.09-.75l0-.14a13.17,13.17,0,0,0-.26-1.31,1.14,1.14,0,0,0-.08-.27c-.13-.38-.3-.87,0-1.11a1.55,1.55,0,0,1,.79-.2l.54,0h.1a7.73,7.73,0,0,1,1,.06,11.8,11.8,0,0,1,2,.43c.41.12.81.26,1.21.39a16.65,16.65,0,0,0,2.83.78c-.31.2-.58.36-.84.5"/><path class="cls-1" d="M41,18.26a23.37,23.37,0,0,0-3.39-8.71,22.73,22.73,0,0,0-2.23-2.89,21.08,21.08,0,0,0-3.57-3.14,19.77,19.77,0,0,0-4.19-2.23A19.05,19.05,0,0,0,18,.19a18.78,18.78,0,0,0-4.63,1.26A19.86,19.86,0,0,0,9.22,3.77,20.87,20.87,0,0,0,5.72,7a23.64,23.64,0,0,0-2.64,3.71A24,24,0,0,0,1.2,14.93a24.67,24.67,0,0,0-1,4.7,24.29,24.29,0,0,0-.08,5,23.54,23.54,0,0,0,2.62,9.1,22.27,22.27,0,0,0,2.51,3.82,43.27,43.27,0,0,0,3.89,3.71,19.46,19.46,0,0,0,11.55,3.84h0a19.16,19.16,0,0,0,4.83-.62,19.8,19.8,0,0,0,4.42-1.76,21.06,21.06,0,0,0,3.88-2.75,22.43,22.43,0,0,0,3.09-3.45,22.93,22.93,0,0,0,2.31-4A24.07,24.07,0,0,0,40.7,28,24.37,24.37,0,0,0,41,18.26M4.37,29H3.84l.48-1.62c0-.12.07-.11.08-.06q0,.87,0,1.68m.26-4.39L3.57,24.2c-.06,0,0,0,0,0H5.85c.07,0,.07,0,0,0l-1,.44a.37.37,0,0,1-.21,0m-1.33-.9L4.49,23c0,.25,0,.5,0,.76Zm.4-2.56h2c.06,0,.06,0,0,0l-.9.39a.34.34,0,0,1-.2,0l-.94-.39s0,0,0,0m-.26-.37,1.1-.64c0,.19,0,.42,0,.64Zm1.48-.63L6,20.81H4.93c0-.22,0-.43,0-.63M5,23l1.19.76H5c0-.26,0-.51,0-.76M5.08,29c0-.54,0-1.1,0-1.68,0,0,0-.07.08,0L5.6,29ZM20.66,43.44a17.23,17.23,0,0,1-8.74-2.38,43.69,43.69,0,0,1,6,.5c2,.27,4,.57,6.05.75.77.07,1.56.13,2.34.16a17.19,17.19,0,0,1-5.7,1m9.24-2.68a31.66,31.66,0,0,1-6-.09c-2-.19-4-.5-5.95-.76a47.19,47.19,0,0,0-6.16-.48c-.71,0-1.41,0-2.1.1a20,20,0,0,1-1.88-1.7,32,32,0,0,1,6.27-.13c2.09.14,4.17.41,6.24.68,1.05.15,2.09.28,3.13.41.52.06,2.58.21,3.09.2a43.54,43.54,0,0,0,6.24-.44,19.67,19.67,0,0,1-2.88,2.21m4.74-4.2a37.67,37.67,0,0,1-6.1.76c-1,0-2.05.07-3.08,0s-2.07-.19-3.1-.33c-2.06-.26-4.13-.56-6.21-.77A43.3,43.3,0,0,0,9.91,36a27.48,27.48,0,0,0-3.38.36,18.3,18.3,0,0,1-1.08-1.49A37.22,37.22,0,0,1,11,34.26a39.81,39.81,0,0,1,5.67.27c1.82.22,3.63.52,5.45.74a41.87,41.87,0,0,0,5,.33h0a34.84,34.84,0,0,0,5.21-.39c1.26-.18,2.5-.41,3.73-.7a20.07,20.07,0,0,1-1.47,2.05M6.9,30.81A1.72,1.72,0,0,1,6,29.28l2.69-5.71c.06-.1.08-.07.07,0Zm1.79-5.4c0,2.57-.08,4.95-.09,6.09A4.83,4.83,0,0,1,7.2,31L8.63,25.3c0-.05,0,0,.06.11m-.71-5h2c.05,0,.06,0,0,0l-.91.39a.31.31,0,0,1-.19,0L8,20.45c-.06,0-.06,0,0,0M7.73,20l1.06-.63c0,.2,0,.41,0,.63Zm1.49-.62,1,.62h-1v-.62m2.16,8.38c0,1.23-.07,2.45-.1,3.4h0l-.9-3.52.48-1ZM11,26.26l.36-.76c0-.05.06,0,.07,0,0,.5,0,1,0,1.57Zm-.89,1.91L11,31.38a5.49,5.49,0,0,1-1,.22l-.36,0a.81.81,0,0,1-.22,0c0-.43,0-1.08,0-1.88ZM9.37,29c0-1.06,0-2.31-.06-3.59,0-.1,0-.18.09,0L10,27.66Zm.85-1.81-.93-3.6c0-.07,0-.11.07,0l1.29,2.69ZM12,28.3v-.52c0-.94-.06-1.37-.08-2.25,0-.06,0-.1.08,0l1.61,3.61a3.15,3.15,0,0,1-.72,1Zm.63,2.07a4.8,4.8,0,0,1-.56.45c0-.49,0-1.12-.05-1.7ZM14.25,29l1.84-3.56c0,1-.07,2.48-.1,3.56h-.75c-.28,0-.72,0-1,0m13.16-4.55h2.66c.07,0,.08,0,0,0L28.89,25a.31.31,0,0,1-.25,0l-1.24-.51c-.07,0-.07,0,0,0m-.3-.48,1.38-.89c0,.26,0,.86,0,.89Zm.5-3.52h2.26s0,0,0,0h0s0,0,0,0l-1,.42a.3.3,0,0,1-.21,0l-1-.43s0,0,0,0M27.37,20l1.19-.77c0,.25,0,.51,0,.77Zm1.6-.75,1.19.75H29c0-.26,0-.51,0-.75M29,23.07l1.39.89H29.05c0-.29,0-.6,0-.89m4-1h2.27c.07,0,.08,0,0,0l-1,.44a.37.37,0,0,1-.21,0L33,22.15c-.06,0,0,0,0,0m-.28-.42L34,20.93c0,.25,0,.5,0,.76Zm1.65-.76,1.21.76H34.44c0-.25,0-.51,0-.76m-.51,4.4c0,2.47-.09,5.13-.12,7a4.61,4.61,0,0,1-1.76.22L33.16,28l.66-2.67c0-.06.07-.1.09,0m-.16-1.07-2,7.87L30.92,30h0l2.69-5.82c.08-.11.16-.19.13.08m-2.18,8.22a3.45,3.45,0,0,1-1.48-.68l.64-1.38Zm-1.73-.9a4.28,4.28,0,0,1-.69-.88c0-1.19,0-3-.08-4.87L30.58,30Zm-3.25-1H23.34l4.84-4.92Zm1.86-4.79c0,1.1-.07,4.66-.07,4.79H26.93Zm6-.51c0-.08,0-.05.07,0l1.36,5.28A3.36,3.36,0,0,1,34.59,32c0-1-.1-6.62-.1-6.64m1.78,5.27-1.66-6.27c0-.38,0-.24.14-.1l3,6.37ZM39,27.53a25,25,0,0,1-.87,2.95l-3.64-7.76,1.6-.64a.2.2,0,0,0,0-.37l-1.65-1.05,0-2.39c.19,0,.38-.1.57-.13a2.47,2.47,0,0,1,.61,0,1.37,1.37,0,0,0,.57,0,1.39,1.39,0,0,0,.47-.24,3,3,0,0,1-1.11-.39,2,2,0,0,0-.59-.14,1.84,1.84,0,0,0-.62,0c0-.14,0-.28-.07-.44h-.08A11.48,11.48,0,0,0,34,19c0,.46,0,.92,0,1.39v.25l-1.65,1.05a.19.19,0,0,0,0,.36h0l1.55.64-3.13,6.85-1.61-4.41,1.79-.75a.23.23,0,0,0,0-.42S29.25,22.93,29,22.78c0-.55,0-1.15,0-1.68l1.63-.69h0a.2.2,0,0,0,0-.37L29,19c0-1.09,0-2.16,0-3.24a1.37,1.37,0,0,0,.28-.05l.31-.08a2.15,2.15,0,0,1,.62,0,1.47,1.47,0,0,0,.59,0,1.34,1.34,0,0,0,.48-.23A3.39,3.39,0,0,1,30.08,15a2,2,0,0,0-.58-.15,1.9,1.9,0,0,0-.63,0,4.39,4.39,0,0,0-.07-.44h-.08a9.79,9.79,0,0,0-.12,1.8c0,.55,0,1.1,0,1.65,0,.36,0,.72,0,1.07L26.9,20a.2.2,0,0,0,0,.37l1.62.69c0,.52,0,1.13,0,1.68L26.61,24a.22.22,0,0,0,0,.42l1.74.76-5.47,5.46c-.1,0-.78,0-.88.12a.3.3,0,0,0-.08.39.79.79,0,0,0,.43.39,1.28,1.28,0,0,0,.29.13l0,0a3.91,3.91,0,0,0,2.6,2.16h0s.06,0,0,0v0h-.06c-2-.11-4-.41-6-.68-.76-.12-1.52-.22-2.28-.31-.52-.06-1-.11-1.54-.2a.19.19,0,0,1-.09,0h0l0,0h0c2.79-.76,3.38-2.59,3.38-2.59l.1-.05.23-.1a.89.89,0,0,0,.42-.39.29.29,0,0,0-.08-.39c-.11-.13-.9-.12-.9-.12h-.14c0-.39,0-1.41,0-2.07a.46.46,0,0,0,.26,0l.32-.08a1.72,1.72,0,0,1,.64,0,1.67,1.67,0,0,0,.63,0,1.13,1.13,0,0,0,.49-.24,3.47,3.47,0,0,1-1.13-.4,2.23,2.23,0,0,0-.62-.14,1.47,1.47,0,0,0-.63.05c0-.16,0-.29,0-.39H18.2A30.55,30.55,0,0,0,18.09,29H16.68c0-1.37-.11-3.21-.15-4.39l1.22-2.35c.17.07.36.08.53.14a1.51,1.51,0,0,1,.5.27,1.52,1.52,0,0,0,.48.27,1.36,1.36,0,0,0,.6,0,2.73,2.73,0,0,1-.73-.82,1.93,1.93,0,0,0-.42-.38,1.76,1.76,0,0,0-.57-.27,2,2,0,0,0,.11-.39.05.05,0,0,0,0,0h0c-.06,0-.08,0-.11.07a3.59,3.59,0,0,0-.28.39L16.52,24c0-.39,0-.79,0-1.18a8.31,8.31,0,0,0-.11-1.49h-.08a10,10,0,0,0-.13,1.81c0,.54,0,1.08,0,1.63l-2.24,4.16-2-4.42c0-.54,0-1.09,0-1.64A10.4,10.4,0,0,0,11.71,21h-.07a10.13,10.13,0,0,0-.13,1.82c0,.56,0,1.12,0,1.67l-.64,1.36L9.27,22.59c0-.54,0-1.08,0-1.6l1.43-.61a.17.17,0,0,0,0-.32l-1.46-.94c0-1.13,0-2.26-.05-3.39a1.28,1.28,0,0,0,.27-.05l.31-.08a2.14,2.14,0,0,1,.62,0,1.52,1.52,0,0,0,.6,0,1.47,1.47,0,0,0,.47-.23A2.86,2.86,0,0,1,10.34,15a2,2,0,0,0-.59-.15,1.72,1.72,0,0,0-.64,0c0-.15,0-.29-.07-.44H9a12.16,12.16,0,0,0-.13,2.18l0,2.11c0,.13,0,.26,0,.39l-1.45.94a.17.17,0,0,0,0,.32L8.76,21c0,.58,0,1.54,0,1.6L5.83,28.73l-.42-1.41H6a.85.85,0,0,0,.24-.05c.06,0,.19-.06.19-.13S6.28,27,6.23,27A.75.75,0,0,0,6,27H5.31L5,26c0-.4,0-.81,0-1.2l1.6-.67a.2.2,0,0,0,0-.37L5,22.72c0-.29,0-.69,0-.95l1.45-.61a.18.18,0,0,0,0-.33l-1.48-.95c0-.95,0-1.58,0-1.65a2.19,2.19,0,0,0,.51-.1,2,2,0,0,1,.54,0,1.3,1.3,0,0,0,.52,0,1.18,1.18,0,0,0,.45-.22,2.56,2.56,0,0,1-1-.35,1.94,1.94,0,0,0-.53-.12,1.32,1.32,0,0,0-.56,0c0-.13,0-.26-.07-.39H4.68a8.14,8.14,0,0,0-.12,1.56c0,.45,0,.76,0,1.21l-1.48.95a.18.18,0,0,0,0,.33l1.44.61c0,.27,0,.66,0,.95l-1.63,1a.2.2,0,0,0,0,.36l1.59.68c0,.39,0,.79,0,1.18l-.29,1H3.48a.93.93,0,0,0-.25,0s-.18.06-.18.13.11.1.16.12a.88.88,0,0,0,.27.06H4L3.54,29h-.8a22.3,22.3,0,0,1-.89-5,22.87,22.87,0,0,1,.24-5.09,22.52,22.52,0,0,1,1.24-4.6,21,21,0,0,1,2.1-4.08,19.76,19.76,0,0,1,1.47-2,11.93,11.93,0,0,0,5,.05,16.86,16.86,0,0,1,5-.21l.49.07a4.46,4.46,0,0,1,.19-.74A16.51,16.51,0,0,0,12,7a6.53,6.53,0,0,1-3.48-.47,18.14,18.14,0,0,1,2.08-1.69,7,7,0,0,0,2.81,1c.64.1,1.28.15,1.91.28s1.29.3,1.91.49a6.41,6.41,0,0,1,.64.26,4.21,4.21,0,0,1,.44-.66L17.86,6a11.38,11.38,0,0,0-2.45-.88,9.7,9.7,0,0,1-1.67-.58,5.11,5.11,0,0,1-1.23-.82A17.82,17.82,0,0,1,15,2.59a11.63,11.63,0,0,0,2.26,1.63,7.94,7.94,0,0,1,1.55,1.53,3,3,0,0,1,.74-.36,7.3,7.3,0,0,0-1.62-2.23A2.83,2.83,0,0,1,17,2a16.57,16.57,0,0,1,2.79-.38l.46,3.59a2.45,2.45,0,0,1,.42,0,2.76,2.76,0,0,1,.43,0l.45-3.59a17.48,17.48,0,0,1,1.95.21c.48.08.85.17.85.17a2.91,2.91,0,0,1-.89,1.14,7.11,7.11,0,0,0-1.61,2.23,3.65,3.65,0,0,1,.74.37,7.74,7.74,0,0,1,1.54-1.54,13,13,0,0,0,2.25-1.63c.14.05.75.26,1.73.71l.73.38a13.2,13.2,0,0,1-1.23.82,8.26,8.26,0,0,1-1.67.58A11.66,11.66,0,0,0,23.47,6l-.41.23a3.05,3.05,0,0,1,.45.66c.15-.07.43-.19.64-.26.62-.19,1.26-.36,1.91-.49s1.27-.18,1.91-.28a7.55,7.55,0,0,0,2.81-1,21.58,21.58,0,0,1,2.07,1.7A6.68,6.68,0,0,1,29.38,7a16.37,16.37,0,0,0-5.63.38,2.71,2.71,0,0,1,.17.73l.53-.08a17.44,17.44,0,0,1,5,.24,11.84,11.84,0,0,0,5-.05c.22.26.43.51.63.78a20.58,20.58,0,0,1,2.35,3.88,21.72,21.72,0,0,1,1.54,4.45,22.83,22.83,0,0,1,.58,4.87,23.61,23.61,0,0,1-.54,5.3"/></g></g></svg>